<?xml version="1.0" encoding="UTF-8" standalone="no"?>
<svg width="45px" height="61px" viewBox="0 0 45 61" version="1.1" xmlns="http://www.w3.org/2000/svg" xmlns:xlink="http://www.w3.org/1999/xlink">
    <!-- Generator: Sketch 42 (36781) - http://www.bohemiancoding.com/sketch -->
    <title>Combined Shape</title>
    <desc>Created with Sketch.</desc>
    <defs></defs>
    <g id="Web-Landing-Page" stroke="none" stroke-width="1" fill="none" fill-rule="evenodd">
        <g id="Desktop" transform="translate(-486.000000, -49.000000)" fill="#FFFFFF">
            <g id="Group" transform="translate(466.000000, 35.000000)">
                <path d="M51.9974612,36.3988094 L52.130822,16.4435059 C59.7413033,20.0384143 65.0104543,27.8094725 65.0104543,36.8157852 C65.0104543,46.0970335 46.2766177,74.3364031 42.6104903,74.3157781 C38.8864963,74.3364031 20.2105263,46.2245334 20.2105263,36.8157852 C20.2105263,24.3901626 30.2401102,14.3157895 42.6104903,14.3157895 C44.4400997,14.3157895 46.2185038,14.5361677 47.9208266,14.9519369 L47.9208266,29.0969486 C46.4257275,28.0745965 44.6196665,27.4770798 42.674858,27.4770798 C37.5209996,27.4770798 33.3415397,31.673329 33.3415397,36.852078 C33.3415397,42.030827 37.5209996,46.2270763 42.674858,46.2270763 C47.8287164,46.2270763 52.0081763,42.030827 52.0081763,36.852078 C52.0081763,36.7001154 52.0045776,36.5489988 51.9974612,36.3988094 Z" id="Combined-Shape"></path>
            </g>
        </g>
    </g>
</svg>