<?xml version="1.0" encoding="UTF-8" standalone="no"?>
<svg version="1.1" id="Layer_1" xmlns="http://www.w3.org/2000/svg" xmlns:xlink="http://www.w3.org/1999/xlink" x="0px" y="0px" enable-background="new 0 0 200 22" xml:space="preserve" width="200px" height="22px">
<defs>
	<linearGradient id="store_link_grad" x1="0%" y1="0%" x2="100%" y2="0%" spreadMethod="pad">
		<stop offset="0%" stop-color="#16D5D9" stop-opacity="1"></stop>
		<stop offset="40%" stop-color="#16D5D9" stop-opacity="1"></stop>
		<stop offset="50%" stop-color="#FFFFFF" stop-opacity="1"></stop>
		<stop offset="60%" stop-color="#16D5D9" stop-opacity="1"></stop>
		<stop offset="100%" stop-color="#16D5D9" stop-opacity="1"></stop>
	</linearGradient>
</defs>
<mask id="store_link_mask">
	<path fill="white" d="M48.9,9.1c-1.4,0-2.6,0.4-3.7,1.4l0.8,1.3c0.8-0.7,1.6-1.1,2.6-1.1c1.2,0,2,0.6,2,1.6v1.3
		c-0.6-0.7-1.6-1.1-2.8-1.1c-1.4,0-3,0.8-3,2.8c0,1.9,1.6,2.9,3,2.9c1.2,0,2.2-0.4,2.8-1.2v1h1.9v-5.8C52.6,9.9,50.9,9.1,48.9,9.1z
		 M50.7,16c-0.4,0.6-1.2,0.9-2.1,0.9c-1.1,0-1.9-0.6-1.9-1.5c0-1,0.8-1.6,1.9-1.6c0.8,0,1.6,0.3,2.1,0.9V16z M59.7,9.1
		c-1.1,0-2.1,0.5-2.8,1.4V6H55v12h1.9v-1.2c0.7,0.9,1.7,1.4,2.8,1.4c2.2,0,3.9-1.7,3.9-4.6C63.5,10.9,61.9,9.1,59.7,9.1z M59.1,16.5
		c-0.9,0-1.8-0.5-2.2-1.2V12c0.4-0.6,1.3-1.2,2.2-1.2c1.5,0,2.5,1.2,2.5,2.9S60.6,16.5,59.1,16.5z M23.8,9.3h2L22.3,18h-2l-3.5-8.7h2
		l2.5,6.5L23.8,9.3z M38.8,7.1c0,0.6-0.5,1.2-1.2,1.2c-0.6,0-1.2-0.5-1.2-1.2c0-0.6,0.5-1.2,1.2-1.2C38.3,5.9,38.8,6.4,38.8,7.1z
		 M30.6,9.1c-1.4,0-2.6,0.4-3.7,1.4l0.8,1.3c0.8-0.7,1.6-1.1,2.6-1.1c1.2,0,2,0.6,2,1.6v1.3c-0.6-0.7-1.6-1.1-2.8-1.1
		c-1.4,0-3,0.8-3,2.8c0,1.9,1.6,2.9,3,2.9c1.2,0,2.2-0.4,2.8-1.2v1h1.9v-5.8C34.2,9.9,32.5,9.1,30.6,9.1z M32.3,16
		c-0.4,0.6-1.2,0.9-2.1,0.9c-1.1,0-1.9-0.6-1.9-1.5c0-1,0.8-1.6,1.9-1.6c0.8,0,1.6,0.3,2.1,0.9V16z M36.7,9.3h1.9V18h-1.9
		C36.7,18,36.7,9.3,36.7,9.3z M41,6h1.9v12H41V6z M9.7,6L5,18h2.4l0.9-2.3h5.5l0.9,2.3h2.4L12.4,6H9.7z M8.9,13.8L11,8.1l2.2,5.7H8.9
		z M93.9,9.1c-2.8,0-4.5,2.1-4.5,4.6s1.7,4.6,4.5,4.6s4.5-2.1,4.5-4.6S96.7,9.1,93.9,9.1z M93.9,16.5c-1.6,0-2.5-1.3-2.5-2.9
		c0-1.5,0.9-2.9,2.5-2.9s2.5,1.4,2.5,2.9C96.4,15.2,95.5,16.5,93.9,16.5z M162,11.8V18h-1.9v-5.5c0-1.4-0.7-1.8-1.8-1.8
		c-1,0-1.8,0.6-2.2,1.2V18h-1.9V6h1.9v4.5c0.6-0.7,1.7-1.4,3.1-1.4C161.1,9.1,162,10.1,162,11.8z M168.4,9.1c-2.8,0-4.5,2.1-4.5,4.6
		s1.7,4.6,4.5,4.6s4.5-2.1,4.5-4.6S171.2,9.1,168.4,9.1z M168.4,16.5c-1.6,0-2.5-1.3-2.5-2.9c0-1.5,0.9-2.9,2.5-2.9s2.5,1.4,2.5,2.9
		C170.9,15.2,170,16.5,168.4,16.5z M148.6,6h-5.3v12h2.1v-4.5h3.2c2.5,0,3.9-1.7,3.9-3.8S151.1,6,148.6,6z M148.3,11.7h-2.9V7.8h2.9
		c1.2,0,2.1,0.8,2.1,1.9C150.4,10.9,149.5,11.7,148.3,11.7z M193.1,13.8c0-2.7-1.7-4.7-4.3-4.7s-4.4,2-4.4,4.6c0,2.8,1.9,4.6,4.6,4.6
		c1.4,0,2.7-0.4,3.5-1.3l-0.9-1.2c-0.6,0.6-1.6,1-2.5,1c-1.6,0-2.6-1.1-2.8-2.4h6.7L193.1,13.8L193.1,13.8z M186.4,12.9
		c0.1-1.1,0.8-2.3,2.4-2.3c1.7,0,2.4,1.3,2.4,2.3H186.4z M141,7.1c0,0.6-0.5,1.2-1.2,1.2c-0.6,0-1.2-0.5-1.2-1.2
		c0-0.6,0.5-1.2,1.2-1.2C140.5,5.9,141,6.4,141,7.1z M182.5,11.9V18h-1.9v-5.4c0-1.4-0.7-1.8-1.7-1.8s-1.8,0.6-2.2,1.2v6h-1.9V9.3
		h1.9v1.2c0.6-0.7,1.7-1.4,3.1-1.4C181.6,9.1,182.5,10.1,182.5,11.9z M105,9.1V11c-0.2,0-0.4-0.1-0.6-0.1c-0.8,0-1.9,0.5-2.2,1.2V18
		h-1.9V9.3h1.9v1.3C102.8,9.8,103.9,9.1,105,9.1z M138.9,9.3h1.9V18h-1.9V9.3z M73.7,9.1c-2.6,0-4.4,2-4.4,4.6c0,2.8,1.9,4.6,4.6,4.6
		c1.4,0,2.7-0.4,3.5-1.3l-0.9-1.2c-0.6,0.6-1.6,1-2.5,1c-1.6,0-2.6-1.1-2.8-2.4H78v-0.5C78,11.1,76.3,9.1,73.7,9.1z M71.2,12.9
		c0.1-1.1,0.8-2.3,2.4-2.3c1.7,0,2.4,1.3,2.4,2.3H71.2z M86.8,8.8v0.5h1.8V11h-1.8v7h-1.9v-7h-1.4V9.3h1.4V8.8c0-1.9,1.1-3,2.8-3
		c0.8,0,1.5,0.2,2.1,0.8L89,7.7c-0.3-0.2-0.6-0.4-1-0.4C87.3,7.4,86.8,7.8,86.8,8.8z M65.5,6h1.9v12h-1.9V6z M120.3,4.7
		c-0.1-0.6-0.1-1.2,0.2-1.7s0.5-1,0.8-1.4c0.9-1,1.9-1.5,3.1-1.5c0.1,1.2-0.3,2.3-1.1,3.2c-0.3,0.5-0.8,0.8-1.3,1.1
		S120.9,4.7,120.3,4.7z M127.9,14.5c0.4,0.3,0.7,0.4,0.7,0.4s-0.1,0.3-0.3,0.9c-0.2,0.6-0.6,1.2-1.1,2c-0.4,0.6-0.9,1.2-1.3,1.7
		s-1.1,0.8-1.8,0.8c-0.7,0-1.2-0.1-1.6-0.4s-1-0.4-1.7-0.4c-0.8,0-1.4,0.1-1.8,0.4s-0.9,0.4-1.5,0.4c-0.7,0-1.3-0.3-1.8-0.8
		s-1-1.1-1.4-1.7c-0.6-0.8-1.1-1.8-1.5-3s-0.6-2.4-0.6-3.6c0-0.6,0.1-1.3,0.2-1.9s0.4-1.2,0.7-1.7c0.4-0.8,1-1.4,1.8-1.8
		s1.6-0.7,2.4-0.7c0.7,0,1.3,0.1,1.9,0.4s1.1,0.5,1.5,0.5s0.9-0.2,1.6-0.5s1.4-0.5,2.3-0.5c0.4,0,0.9,0.1,1.7,0.3s1.5,0.8,2.1,1.7
		c0,0-0.2,0.2-0.6,0.4c-0.4,0.2-0.7,0.7-1.1,1.3s-0.5,1.3-0.5,2.2c0,1,0.3,1.8,0.7,2.4S127.4,14.2,127.9,14.5z"></path>
</mask>
<g mask="url(#store_link_mask)">
	<rect class="available-on-iphone-gradient" x="0" y="0" width="600" height="22" fill="url(#store_link_grad)"></rect>
</g>
</svg>