<svg xmlns="http://www.w3.org/2000/svg" width="44" height="44" xmlns:xlink="http://www.w3.org/1999/xlink">
    <g fill="none" fill-rule="evenodd">
        <path fill="#FFF" d="M21.965.07C16 .07 15.252.093 12.91.2c-2.34.106-3.936.478-5.333 1.02-1.444.562-2.67 1.313-3.89 2.534-1.22 1.22-1.972 2.446-2.534 3.89C.61 9.044.24 10.64.133 12.98.023 15.32 0 16.068 0 22.035 0 28 .025 28.748.132 31.09c.107 2.34.478 3.936 1.02 5.333.563 1.444 1.314 2.67 2.535 3.89 1.22 1.22 2.446 1.973 3.89 2.534 1.397.543 2.994.914 5.332 1.02 2.34.108 3.09.133 9.05.133 5.96 0 6.71-.025 9.05-.132 2.34-.107 3.93-.478 5.33-1.02 1.44-.562 2.67-1.314 3.89-2.535 1.22-1.22 1.97-2.446 2.53-3.89.54-1.397.91-2.994 1.02-5.332.103-2.34.13-3.09.13-9.05 0-5.96-.027-6.71-.134-9.05-.105-2.34-.476-3.93-1.02-5.33-.56-1.44-1.31-2.67-2.533-3.89-1.22-1.22-2.447-1.97-3.89-2.53C34.95.68 33.36.31 31.02.21 28.68.09 27.93.07 21.964.07m0 3.957c5.865 0 6.56.022 8.876.128 2.15.098 3.31.456 4.08.756 1.03.4 1.76.88 2.53 1.65.77.77 1.25 1.5 1.65 2.53.3.78.66 1.94.76 4.08.105 2.32.127 3.01.127 8.88s-.02 6.56-.127 8.88c-.1 2.144-.46 3.307-.76 4.08-.4 1.026-.877 1.758-1.646 2.527-.77.768-1.5 1.244-2.525 1.643-.78.3-1.94.66-4.08.754-2.32.108-3.01.13-8.88.13s-6.56-.022-8.878-.13c-2.144-.095-3.307-.453-4.08-.754-1.026-.4-1.758-.875-2.527-1.64-.767-.77-1.243-1.5-1.64-2.53-.3-.77-.66-1.934-.756-4.08-.108-2.312-.13-3.01-.13-8.87s.022-6.56.13-8.877c.096-2.144.453-3.307.754-4.08.4-1.026.87-1.758 1.64-2.527.77-.766 1.5-1.242 2.53-1.64.77-.3 1.932-.657 4.08-.755 2.31-.104 3.01-.13 8.87-.13"></path>
        <path fill="#FFF" d="M21.965 29.356c-4.043 0-7.32-3.278-7.32-7.32 0-4.045 3.277-7.323 7.32-7.323 4.044 0 7.322 3.278 7.322 7.322 0 4.043-3.278 7.32-7.322 7.32m0-18.6c-6.23 0-11.28 5.05-11.28 11.28 0 6.23 5.05 11.28 11.28 11.28 6.23 0 11.28-5.05 11.28-11.28 0-6.23-5.05-11.28-11.28-11.28m14.36-.445c0 1.455-1.18 2.635-2.634 2.635s-2.63-1.18-2.63-2.636c0-1.46 1.18-2.64 2.64-2.64 1.46 0 2.64 1.18 2.64 2.63"></path>
    </g>
</svg>