<svg xmlns="http://www.w3.org/2000/svg" width="51" height="44">
    <path fill="#FFF" fill-rule="evenodd" d="M44.992 6.956c2.16-1.373 3.82-3.55 4.598-6.142-2.024 1.274-4.26 2.195-6.645 2.694C41.04 1.348 38.32 0 35.308 0c-5.777 0-10.46 4.973-10.46 11.106 0 .87.088 1.72.267 2.53-8.693-.464-16.4-4.88-21.565-11.605-.9 1.648-1.416 3.554-1.416 5.588 0 3.852 1.847 7.252 4.655 9.248-1.717-.058-3.33-.563-4.743-1.39v.138c0 5.383 3.604 9.873 8.396 10.89-.88.26-1.802.39-2.76.39-.673 0-1.332-.066-1.966-.196 1.33 4.41 5.193 7.627 9.773 7.712-3.582 2.98-8.093 4.753-12.993 4.753-.845 0-1.68-.047-2.497-.152C4.63 42.16 10.13 44 16.04 44c19.247 0 29.766-16.925 29.766-31.603 0-.483-.006-.963-.027-1.437C47.822 9.394 49.6 7.436 51 5.208c-1.877.884-3.895 1.48-6.008 1.748z"></path>
</svg>