<?xml version="1.0" encoding="UTF-8" standalone="no"?>
<svg width="37px" height="32px" viewBox="0 0 37 32" version="1.1" xmlns="http://www.w3.org/2000/svg" xmlns:xlink="http://www.w3.org/1999/xlink">
    <!-- Generator: Sketch 42 (36781) - http://www.bohemiancoding.com/sketch -->
    <title>Shape</title>
    <desc>Created with Sketch.</desc>
    <defs></defs>
    <g id="Web-Landing-Page" stroke="none" stroke-width="1" fill="none" fill-rule="evenodd">
        <g id="Desktop" transform="translate(-459.000000, -1434.000000)" fill="#FFFFFF">
            <g id="Group" transform="translate(407.000000, 1434.000000)">
                <path d="M84.7215099,5.05907843 C86.2933615,4.06066734 87.4994637,2.47753864 88.0655045,0.591651018 C86.5937985,1.51841687 84.9675199,2.18864654 83.2323873,2.55149502 C81.8477645,0.979921999 79.8687989,0 77.6786566,0 C73.4768925,0 70.0719397,3.61692908 70.0719397,8.07742308 C70.0719397,8.71067456 70.135075,9.32774809 70.2656998,9.91708797 C63.94346,9.579662 58.3374794,6.36718186 54.5820167,1.47681641 C53.9267157,2.67398527 53.5522579,4.06066734 53.5522579,5.53979489 C53.5522579,8.34089268 54.8955162,10.813809 56.9376171,12.2652029 C55.6901503,12.2236025 54.5167043,11.8561317 53.4891226,11.2552362 L53.4891226,11.3546151 C53.4891226,15.2696808 56.1103267,18.5353171 59.5958315,19.2748808 C58.9557701,19.464394 58.2852295,19.5591507 57.5885639,19.5591507 C57.098721,19.5591507 56.6197634,19.5106168 56.1582225,19.4158602 C57.1248459,22.623718 59.935456,24.9625885 63.2663881,25.0249892 C60.6604236,27.1928355 57.3795643,28.4824498 53.8156846,28.4824498 C53.2017481,28.4824498 52.5943428,28.4477828 52,28.3715152 C55.3679425,30.6618518 59.3672382,32 63.6647937,32 C77.6634171,32 85.3136756,19.6908855 85.3136756,9.01574462 C85.3136756,8.66445183 85.3093214,8.31547017 85.2940819,7.97111079 C86.7810274,6.83172035 88.0742128,5.40806009 89.0909091,3.7879532 C87.72588,4.43044923 86.2585282,4.86494294 84.7215099,5.05907843 Z" id="Shape"></path>
            </g>
        </g>
    </g>
</svg>